<?xml version="1.0" encoding="UTF-8"?>
<svg width="100pt" height="100pt" version="1.1" viewBox="0 0 100 100" xmlns="http://www.w3.org/2000/svg">
<g>
 <path d="m49.996 12.266c-20.805 0-37.734 16.93-37.734 37.738 0 20.805 16.93 37.734 37.734 37.734 20.812 0 37.742-16.93 37.742-37.734 0-20.809-16.934-37.738-37.742-37.738zm0 72.672c-19.262 0-34.934-15.672-34.934-34.934 0-19.266 15.672-34.941 34.934-34.941 19.27 0 34.945 15.676 34.945 34.941-0.003906 19.262-15.68 34.934-34.945 34.934z"/>
 <path d="m43.527 29.699c-0.53906-0.53516-1.4414-0.53516-1.9805 0-0.25781 0.26172-0.40625 0.61328-0.40625 0.98828 0 0.37109 0.14453 0.72656 0.41016 0.99219l18.641 18.641-18.637 18.637c-0.26172 0.26172-0.41406 0.61719-0.41406 0.99609 0 0.37109 0.14453 0.72266 0.40234 0.98438 0.26172 0.26562 0.61719 0.41406 0.99609 0.41406 0.375 0 0.72656-0.14453 0.98828-0.41016l19.629-19.633c0.26172-0.26172 0.41406-0.61719 0.41406-0.99219s-0.14453-0.73047-0.41406-0.98828z"/>
</g>
</svg>